{"extensionsUsed" : ["KHR_materials_specular", "KHR_materials_ior"], "accessors" : [{"bufferView" : 0, "byteOffset" : 0, "componentType" : 5123, "count" : 2466, "type" : "SCALAR", "max" : [538], "min" : [0]}, {"bufferView" : 1, "byteOffset" : 0, "componentType" : 5126, "count" : 539, "type" : "VEC3", "max" : [0.5, 0.5, 0.5], "min" : [-0.5190050005912781, -0.5000000596046448, -0.5], "name" : "POSITION"}, {"bufferView" : 1, "byteOffset" : 12, "componentType" : 5126, "count" : 539, "type" : "VEC3", "max" : [1.0000044107437134, 1.0000044107437134, 1.0000044107437134], "min" : [-1.0000044107437134, -1.0000044107437134, -1.0000044107437134], "name" : "NORMAL"}, {"bufferView" : 1, "byteOffset" : 24, "componentType" : 5126, "count" : 539, "type" : "VEC2", "max" : [1.9940053224563599, 2.9590792655944824], "min" : [-1.1190053224563599, -0.5986471176147461], "name" : "TEXCOORD_0"}, {"bufferView" : 0, "byteOffset" : 4932, "componentType" : 5123, "count" : 3300, "type" : "SCALAR", "max" : [673], "min" : [0]}, {"bufferView" : 2, "byteOffset" : 0, "componentType" : 5126, "count" : 674, "type" : "VEC3", "max" : [1.663320541381836, 2.855815887451172, 0.5], "min" : [-1.6739559173583984, -0.9002590179443359, -0.5000001788139343], "name" : "POSITION"}, {"bufferView" : 2, "byteOffset" : 12, "componentType" : 5126, "count" : 674, "type" : "VEC3", "max" : [0.9999886751174927, 0.9999805688858032, 1.0000044107437134], "min" : [-0.9999886751174927, -0.9999805688858032, -1.0000044107437134], "name" : "NORMAL"}, {"bufferView" : 2, "byteOffset" : 24, "componentType" : 5126, "count" : 674, "type" : "VEC2", "max" : [0.875, 2], "min" : [0.125, 1], "name" : "TEXCOORD_0"}, {"bufferView" : 0, "byteOffset" : 11532, "componentType" : 5123, "count" : 1548, "type" : "SCALAR", "max" : [373], "min" : [0]}, {"bufferView" : 3, "byteOffset" : 0, "componentType" : 5126, "count" : 374, "type" : "VEC3", "max" : [0.5, 0.5000038146972656, 0.4999995231628418], "min" : [-0.5, -0.5, -0.5], "name" : "POSITION"}, {"bufferView" : 3, "byteOffset" : 12, "componentType" : 5126, "count" : 374, "type" : "VEC3", "max" : [0.9978702664375305, 0.9978702664375305, 1.0000044107437134], "min" : [-0.9978702664375305, -0.9978702664375305, -1.0000044107437134], "name" : "NORMAL"}, {"bufferView" : 3, "byteOffset" : 24, "componentType" : 5126, "count" : 374, "type" : "VEC2", "max" : [0.875, 2], "min" : [-0, 1], "name" : "TEXCOORD_0"}, {"bufferView" : 0, "byteOffset" : 14628, "componentType" : 5123, "count" : 36, "type" : "SCALAR", "max" : [23], "min" : [0]}, {"bufferView" : 4, "byteOffset" : 0, "componentType" : 5126, "count" : 24, "type" : "VEC3", "max" : [0.5, 0.5, 0.5], "min" : [-0.5, -0.5, -0.5], "name" : "POSITION"}, {"bufferView" : 4, "byteOffset" : 12, "componentType" : 5126, "count" : 24, "type" : "VEC3", "max" : [1.0000044107437134, 1.0000044107437134, 1.0000044107437134], "min" : [-1.0000044107437134, -1.0000044107437134, -1.0000044107437134], "name" : "NORMAL"}, {"bufferView" : 4, "byteOffset" : 24, "componentType" : 5126, "count" : 24, "type" : "VEC2", "max" : [0.875, 2], "min" : [0.125, 1], "name" : "TEXCOORD_0"}, {"bufferView" : 0, "byteOffset" : 14700, "componentType" : 5123, "count" : 1548, "type" : "SCALAR", "max" : [373], "min" : [0]}, {"bufferView" : 5, "byteOffset" : 0, "componentType" : 5126, "count" : 374, "type" : "VEC3", "max" : [0.5, 0.5000038146972656, 0.4999995231628418], "min" : [-0.5, -0.5, -0.5], "name" : "POSITION"}, {"bufferView" : 5, "byteOffset" : 12, "componentType" : 5126, "count" : 374, "type" : "VEC3", "max" : [0.9978702664375305, 0.9978702664375305, 1.0000044107437134], "min" : [-0.9978702664375305, -0.9978702664375305, -1.0000044107437134], "name" : "NORMAL"}, {"bufferView" : 5, "byteOffset" : 24, "componentType" : 5126, "count" : 374, "type" : "VEC2", "max" : [0.875, 2], "min" : [-0, 1], "name" : "TEXCOORD_0"}, {"bufferView" : 0, "byteOffset" : 17796, "componentType" : 5123, "count" : 1548, "type" : "SCALAR", "max" : [373], "min" : [0]}, {"bufferView" : 6, "byteOffset" : 0, "componentType" : 5126, "count" : 374, "type" : "VEC3", "max" : [0.5, 0.5000038146972656, 0.4999995231628418], "min" : [-0.5, -0.5, -0.5], "name" : "POSITION"}, {"bufferView" : 6, "byteOffset" : 12, "componentType" : 5126, "count" : 374, "type" : "VEC3", "max" : [0.9978702664375305, 0.9978702664375305, 1.0000044107437134], "min" : [-0.9978702664375305, -0.9978702664375305, -1.0000044107437134], "name" : "NORMAL"}, {"bufferView" : 6, "byteOffset" : 24, "componentType" : 5126, "count" : 374, "type" : "VEC2", "max" : [0.875, 2], "min" : [-0, 1], "name" : "TEXCOORD_0"}, {"bufferView" : 0, "byteOffset" : 20892, "componentType" : 5123, "count" : 1548, "type" : "SCALAR", "max" : [373], "min" : [0]}, {"bufferView" : 7, "byteOffset" : 0, "componentType" : 5126, "count" : 374, "type" : "VEC3", "max" : [0.5, 0.5000038146972656, 0.4999995231628418], "min" : [-0.5, -0.5, -0.5], "name" : "POSITION"}, {"bufferView" : 7, "byteOffset" : 12, "componentType" : 5126, "count" : 374, "type" : "VEC3", "max" : [0.9978702664375305, 0.9978702664375305, 1.0000044107437134], "min" : [-0.9978702664375305, -0.9978702664375305, -1.0000044107437134], "name" : "NORMAL"}, {"bufferView" : 7, "byteOffset" : 24, "componentType" : 5126, "count" : 374, "type" : "VEC2", "max" : [0.875, 2], "min" : [-0, 1], "name" : "TEXCOORD_0"}, {"bufferView" : 0, "byteOffset" : 23988, "componentType" : 5123, "count" : 1548, "type" : "SCALAR", "max" : [373], "min" : [0]}, {"bufferView" : 8, "byteOffset" : 0, "componentType" : 5126, "count" : 374, "type" : "VEC3", "max" : [0.5, 0.5000038146972656, 0.4999995231628418], "min" : [-0.5, -0.5, -0.5], "name" : "POSITION"}, {"bufferView" : 8, "byteOffset" : 12, "componentType" : 5126, "count" : 374, "type" : "VEC3", "max" : [0.9978702664375305, 0.9978702664375305, 1.0000044107437134], "min" : [-0.9978702664375305, -0.9978702664375305, -1.0000044107437134], "name" : "NORMAL"}, {"bufferView" : 8, "byteOffset" : 24, "componentType" : 5126, "count" : 374, "type" : "VEC2", "max" : [0.875, 2], "min" : [-0, 1], "name" : "TEXCOORD_0"}], "asset" : {"generator" : "Aspose.3D 24.4.1", "version" : "2.0"}, "buffers" : [{"uri" : "data:application/octet-stream;base64,", "byteLength" : 126544}], "bufferViews" : [{"buffer" : 0, "byteOffset" : 0, "byteLength" : 27084, "target" : 34963}, {"buffer" : 0, "byteOffset" : 27088, "byteLength" : 17248, "byteStride" : 32, "target" : 34962}, {"buffer" : 0, "byteOffset" : 44340, "byteLength" : 21568, "byteStride" : 32, "target" : 34962}, {"buffer" : 0, "byteOffset" : 65912, "byteLength" : 11968, "byteStride" : 32, "target" : 34962}, {"buffer" : 0, "byteOffset" : 77884, "byteLength" : 768, "byteStride" : 32, "target" : 34962}, {"buffer" : 0, "byteOffset" : 78656, "byteLength" : 11968, "byteStride" : 32, "target" : 34962}, {"buffer" : 0, "byteOffset" : 90628, "byteLength" : 11968, "byteStride" : 32, "target" : 34962}, {"buffer" : 0, "byteOffset" : 102600, "byteLength" : 11968, "byteStride" : 32, "target" : 34962}, {"buffer" : 0, "byteOffset" : 114572, "byteLength" : 11968, "byteStride" : 32, "target" : 34962}], "images" : [{"uri" : "data:image/jpeg;base64,"}], "materials" : [{"name" : "phong1", "extensions" : {"KHR_materials_specular" : {"specularColorFactor" : [0.11203269578857478, 0.11203269578857478, 0.11203269578857478]}, "KHR_materials_ior" : {"ior" : 1.4500000476837158}}, "pbrMetallicRoughness" : {"baseColorFactor" : [1, 1, 1, 1], "baseColorTexture" : {"index" : 0, "texCoord" : 0}, "metallicFactor" : 0, "roughnessFactor" : 0.14960630238056183}, "emissiveFactor" : [0, 0, 0], "alphaMode" : "OPAQUE", "doubleSided" : true}, {"name" : "buttons", "extensions" : {"KHR_materials_specular" : {"specularColorFactor" : [0.056016321392300845, 0.056016321392300845, 0.056016321392300845]}, "KHR_materials_ior" : {"ior" : 1.4500000476837158}}, "pbrMetallicRoughness" : {"baseColorFactor" : [0.025477707386016846, 0.025477707386016846, 0.025477707386016846, 1], "metallicFactor" : 0, "roughnessFactor" : 0.20793502032756805}, "emissiveFactor" : [0, 0, 0], "alphaMode" : "OPAQUE", "doubleSided" : true}, {"name" : "buttons", "extensions" : {"KHR_materials_specular" : {"specularColorFactor" : [0.056016321392300845, 0.056016321392300845, 0.056016321392300845]}, "KHR_materials_ior" : {"ior" : 1.4500000476837158}}, "pbrMetallicRoughness" : {"baseColorFactor" : [0.025477707386016846, 0.025477707386016846, 0.025477707386016846, 1], "metallicFactor" : 0, "roughnessFactor" : 0.20793502032756805}, "emissiveFactor" : [0, 0, 0], "alphaMode" : "OPAQUE", "doubleSided" : true}, {"name" : "lambert5", "extensions" : {"KHR_materials_specular" : {"specularColorFactor" : [2.371357614441398, 2.371357614441398, 2.371357614441398]}, "KHR_materials_ior" : {"ior" : 1.4500000476837158}}, "pbrMetallicRoughness" : {"baseColorFactor" : [1, 1, 1, 1], "metallicFactor" : 1, "roughnessFactor" : 0.5527864098548889}, "emissiveFactor" : [0, 0, 0], "alphaMode" : "OPAQUE", "doubleSided" : true}, {"name" : "buttons", "extensions" : {"KHR_materials_specular" : {"specularColorFactor" : [0.056016321392300845, 0.056016321392300845, 0.056016321392300845]}, "KHR_materials_ior" : {"ior" : 1.4500000476837158}}, "pbrMetallicRoughness" : {"baseColorFactor" : [0.025477707386016846, 0.025477707386016846, 0.025477707386016846, 1], "metallicFactor" : 0, "roughnessFactor" : 0.20793502032756805}, "emissiveFactor" : [0, 0, 0], "alphaMode" : "OPAQUE", "doubleSided" : true}, {"name" : "buttons", "extensions" : {"KHR_materials_specular" : {"specularColorFactor" : [0.056016321392300845, 0.056016321392300845, 0.056016321392300845]}, "KHR_materials_ior" : {"ior" : 1.4500000476837158}}, "pbrMetallicRoughness" : {"baseColorFactor" : [0.025477707386016846, 0.025477707386016846, 0.025477707386016846, 1], "metallicFactor" : 0, "roughnessFactor" : 0.20793502032756805}, "emissiveFactor" : [0, 0, 0], "alphaMode" : "OPAQUE", "doubleSided" : true}, {"name" : "buttons", "extensions" : {"KHR_materials_specular" : {"specularColorFactor" : [0.056016321392300845, 0.056016321392300845, 0.056016321392300845]}, "KHR_materials_ior" : {"ior" : 1.4500000476837158}}, "pbrMetallicRoughness" : {"baseColorFactor" : [0.025477707386016846, 0.025477707386016846, 0.025477707386016846, 1], "metallicFactor" : 0, "roughnessFactor" : 0.20793502032756805}, "emissiveFactor" : [0, 0, 0], "alphaMode" : "OPAQUE", "doubleSided" : true}, {"name" : "buttons", "extensions" : {"KHR_materials_specular" : {"specularColorFactor" : [0.056016321392300845, 0.056016321392300845, 0.056016321392300845]}, "KHR_materials_ior" : {"ior" : 1.4500000476837158}}, "pbrMetallicRoughness" : {"baseColorFactor" : [0.025477707386016846, 0.025477707386016846, 0.025477707386016846, 1], "metallicFactor" : 0, "roughnessFactor" : 0.20793502032756805}, "emissiveFactor" : [0, 0, 0], "alphaMode" : "OPAQUE", "doubleSided" : true}], "meshes" : [{"primitives" : [{"attributes" : {"POSITION" : 1, "NORMAL" : 2, "TEXCOORD_0" : 3}, "indices" : 0, "material" : 0, "mode" : 4}]}, {"primitives" : [{"attributes" : {"POSITION" : 5, "NORMAL" : 6, "TEXCOORD_0" : 7}, "indices" : 4, "material" : 1, "mode" : 4}]}, {"primitives" : [{"attributes" : {"POSITION" : 9, "NORMAL" : 10, "TEXCOORD_0" : 11}, "indices" : 8, "material" : 2, "mode" : 4}]}, {"primitives" : [{"attributes" : {"POSITION" : 13, "NORMAL" : 14, "TEXCOORD_0" : 15}, "indices" : 12, "material" : 3, "mode" : 4}]}, {"primitives" : [{"attributes" : {"POSITION" : 17, "NORMAL" : 18, "TEXCOORD_0" : 19}, "indices" : 16, "material" : 4, "mode" : 4}]}, {"primitives" : [{"attributes" : {"POSITION" : 21, "NORMAL" : 22, "TEXCOORD_0" : 23}, "indices" : 20, "material" : 5, "mode" : 4}]}, {"primitives" : [{"attributes" : {"POSITION" : 25, "NORMAL" : 26, "TEXCOORD_0" : 27}, "indices" : 24, "material" : 6, "mode" : 4}]}, {"primitives" : [{"attributes" : {"POSITION" : 29, "NORMAL" : 30, "TEXCOORD_0" : 31}, "indices" : 28, "material" : 7, "mode" : 4}]}], "nodes" : [{"matrix" : [13.472051620483398, 0, 0, 0, 0, 19.235729217529297, 0, 0, 0, 0, 2.9682745933532715, 0, 0, -0.9377869963645935, -3.0038223266601562, 1], "mesh" : 0, "name" : "pasted__pCube1"}, {"matrix" : [1.239786982536316, 0, 0, 0, 0, 1.239786982536316, 0, 0, 0, 0, 1, 0, -2.958705186843872, 1.8370569944381714, -4.3890180587768555, 1], "mesh" : 1, "name" : "pCube13"}, {"matrix" : [1.3753509853476748E-07, 0, 0.6781276828395455, 0, 0, 0.6781277060508728, 0, 0, -0.4407260863130531, 0, 8.938627229328231E-08, 0, 6.718531131744385, -7.531340599060059, -2.988893985748291, 1], "mesh" : 2, "name" : "pCube14"}, {"matrix" : [12.474305152893066, 0, 0, 0, 0, 9.108512878417969, 0, 0, 0, 0, 1, 0, 0, -4.836102485656738, -3.4096648693084717, 1], "mesh" : 3, "name" : "pCube15"}, {"matrix" : [1.3389333486557007, 0, 0, 0, 0, 1.3389333486557007, 0, 0, 0, 0, 0.7553021907806396, 0, 4.32394552230835, 3.0726115703582764, -4.468165397644043, 1], "mesh" : 4, "name" : "pCube2"}, {"matrix" : [1.3389333486557007, 0, 0, 0, 0, 1.3389333486557007, 0, 0, 0, 0, 0.7553021907806396, 0, 2.8466784954071045, 1.5497010946273804, -4.468165397644043, 1], "mesh" : 5, "name" : "pCube4"}, {"matrix" : [1.3389333486557007, 0, 0, 0, 0, 1.3389333486557007, 0, 0, 0, 0, 0.7553021907806396, 0, 2.851471424102783, 4.569089412689209, -4.468165397644043, 1], "mesh" : 6, "name" : "pCube5"}, {"matrix" : [1.3389333486557007, 0, 0, 0, 0, 1.3389333486557007, 0, 0, 0, 0, 0.7553021907806396, 0, 1.3574475049972534, 3.0726115703582764, -4.468165397644043, 1], "mesh" : 7, "name" : "pCube6"}, {"children" : [0, 1, 2, 3, 4, 5, 6, 7], "matrix" : [0.009999999776482582, 0, 0, 0, 0, -0.009999999776482582, -1.5099578494221306E-09, 0, 0, 1.5099578494221306E-09, -0.009999999776482582, 0, 0.0011410405859351158, 0.0888013243675232, -0.03333889693021774, 1], "name" : "ConsoleRetro"}], "samplers" : [{"magFilter" : 9729, "minFilter" : 9987, "wrapS" : 10497, "wrapT" : 10497}], "scene" : 0, "scenes" : [{"nodes" : [8]}], "textures" : [{"sampler" : 0, "source" : 0, "name" : ""}]}